<svg width="23" height="24" viewBox="0 0 23 24" fill="none" xmlns="http://www.w3.org/2000/svg">
<rect width="23" height="23" transform="translate(0 0.5)" fill="#F0820F"/>
<path d="M12.8234 5.86364L12.528 13.8636H9.93706L9.6416 5.86364H12.8234ZM11.2325 17.6818C10.7931 17.6818 10.4162 17.5284 10.1018 17.2216C9.79122 16.911 9.63781 16.5341 9.6416 16.0909C9.63781 15.6591 9.79122 15.2898 10.1018 14.983C10.4162 14.6761 10.7931 14.5227 11.2325 14.5227C11.6492 14.5227 12.0166 14.6761 12.3348 14.983C12.6568 15.2898 12.8196 15.6591 12.8234 16.0909C12.8196 16.3864 12.742 16.6553 12.5905 16.8977C12.4427 17.1364 12.2496 17.3277 12.0109 17.4716C11.7723 17.6117 11.5128 17.6818 11.2325 17.6818Z" fill="white"/>
</svg>
