<svg width="19" height="18" viewBox="0 0 19 18" fill="none" xmlns="http://www.w3.org/2000/svg">
<path fill-rule="evenodd" clip-rule="evenodd" d="M10.4453 1C10.5186 1 10.715 1.02812 10.8781 1.06562C11.0412 1.1 11.3408 1.175 11.5439 1.22813C11.747 1.28125 12.0732 1.38438 12.2763 1.45625C12.4794 1.52812 12.7623 1.64062 12.9088 1.70625C13.0553 1.76875 13.3116 1.89062 13.4747 1.97812C13.6379 2.06562 13.9108 2.21875 14.074 2.32187C14.2371 2.425 14.5467 2.6375 14.7564 2.79688C14.9661 2.95625 15.3157 3.25312 15.5287 3.45625C15.7451 3.6625 16.0314 3.9625 16.1712 4.125C16.3077 4.2875 16.5341 4.57812 16.6673 4.76562C16.8038 4.95312 17.0201 5.3 17.15 5.53125C17.2765 5.7625 17.4496 6.11562 17.5361 6.3125C17.6194 6.50938 17.7392 6.83437 17.8025 7.03125C17.8657 7.22813 17.9556 7.55937 17.9989 7.76562C18.0655 8.05937 18.0754 8.16563 18.0488 8.25C18.0322 8.30937 17.9756 8.4 17.9256 8.44688C17.8757 8.49375 17.7825 8.54688 17.7192 8.5625C17.656 8.57812 17.5561 8.58125 17.5029 8.57188C17.4496 8.5625 17.3531 8.52187 17.2931 8.48125C17.2365 8.44062 17.17 8.36875 17.15 8.32188C17.1333 8.27187 17.0867 8.1 17.0501 7.9375C17.0102 7.775 16.9436 7.5125 16.897 7.35938C16.8504 7.20625 16.7472 6.91563 16.6639 6.71875C16.584 6.52187 16.4209 6.18437 16.3011 5.96875C16.1812 5.75313 15.9981 5.45937 15.8983 5.3125C15.7951 5.16563 15.6153 4.92812 15.4955 4.78125C15.3756 4.63438 15.1126 4.35625 14.9096 4.15937C14.7065 3.96563 14.3902 3.69062 14.2071 3.55C14.024 3.40625 13.7544 3.21563 13.6079 3.125C13.4614 3.03125 13.2151 2.8875 13.0586 2.80313C12.9022 2.71875 12.6192 2.58438 12.4261 2.5C12.233 2.41875 11.9734 2.31562 11.8435 2.26875C11.7137 2.225 11.5073 2.15937 11.3775 2.125C11.2476 2.0875 10.958 2.02188 10.7283 1.975C10.4986 1.92813 10.2722 1.86563 10.2223 1.83438C10.169 1.80625 10.0991 1.73438 10.0625 1.67813C10.0259 1.625 9.99592 1.525 9.99592 1.45937C9.99592 1.39687 10.0192 1.3 10.0459 1.25C10.0725 1.19688 10.1457 1.12188 10.2056 1.07812C10.2789 1.025 10.3555 1 10.4453 1V1ZM4.28665 1.9375C4.44312 1.9375 4.62954 1.95938 4.73607 1.9875C4.83594 2.01562 5.00239 2.08125 5.10226 2.13437C5.23542 2.20312 5.61826 2.54063 6.52043 3.3875C7.63232 4.43125 7.76881 4.56875 7.87201 4.76562C7.93526 4.88438 8.0085 5.06875 8.0318 5.17188C8.0551 5.27812 8.06509 5.44688 8.0551 5.5625C8.04512 5.675 8.00517 5.85 7.96855 5.95312C7.9286 6.05625 7.84205 6.21875 7.77547 6.3125C7.70556 6.40625 7.36267 6.75938 6.37062 7.70312L6.49712 7.9375C6.57036 8.06563 6.72017 8.30625 6.83335 8.46875C6.94987 8.63125 7.10966 8.85 7.19289 8.95312C7.27944 9.05625 7.47252 9.28125 7.62899 9.45312C7.78545 9.625 8.10837 9.95 8.34806 10.1719C8.58442 10.3938 8.94395 10.7063 9.14036 10.8594C9.3401 11.0125 9.67633 11.2563 9.88939 11.3969C10.1024 11.5375 10.4254 11.7219 10.928 11.9688L11.6205 11.3344C12 10.9844 12.3762 10.6625 12.4594 10.6156C12.5426 10.5719 12.6758 10.5125 12.759 10.4844C12.8422 10.4563 12.9987 10.4219 13.1086 10.4062C13.2251 10.3906 13.3982 10.3906 13.5247 10.4094C13.6479 10.4281 13.8509 10.4875 13.9907 10.5531C14.2271 10.6562 14.3103 10.7312 15.4755 11.825C16.6806 12.9563 16.7139 12.9906 16.8504 13.25C16.9369 13.4187 16.9968 13.5906 17.0168 13.7188C17.0368 13.8438 17.0368 14.0063 17.0168 14.1406C16.9968 14.2969 16.9469 14.4375 16.847 14.625C16.7172 14.8656 16.6373 14.9531 15.9715 15.5938C15.5687 15.9812 15.1859 16.3438 15.1226 16.3938C15.0594 16.4469 14.9329 16.5375 14.8396 16.5938C14.7498 16.6531 14.59 16.7344 14.4901 16.775C14.3902 16.8156 14.1672 16.8844 14.0007 16.925C13.761 16.9812 13.6046 17 13.315 17C13.0664 17 12.7867 16.974 12.476 16.9219C12.2197 16.8813 11.8735 16.8094 11.7104 16.7656C11.5472 16.7219 11.2609 16.6344 11.0779 16.5719C10.8948 16.5094 10.5485 16.3781 10.3122 16.2812C10.0758 16.1812 9.65303 15.9875 9.38005 15.8531C9.10707 15.7156 8.73755 15.5219 8.56444 15.4219C8.39133 15.3219 8.09172 15.1438 7.89864 15.0219C7.70556 14.9 7.38597 14.6875 7.1829 14.5469C6.97983 14.4062 6.63694 14.15 6.41723 13.9781C6.19751 13.8062 5.80802 13.4781 5.55501 13.2469C5.29868 13.0156 4.91584 12.6438 4.70611 12.4219C4.49305 12.2 4.2001 11.875 4.05029 11.7031C3.90382 11.5312 3.69409 11.2781 3.58423 11.1406C3.47104 11.0031 3.248 10.7 3.08155 10.4688C2.9151 10.2375 2.7087 9.93437 2.61882 9.79688C2.53226 9.65938 2.32253 9.29375 2.15608 8.98438C1.9863 8.675 1.75993 8.20312 1.65007 7.9375C1.53689 7.67188 1.41038 7.34062 1.36378 7.20312C1.31717 7.06563 1.24393 6.79063 1.194 6.59375C1.14739 6.39687 1.09413 6.07188 1.07748 5.875C1.05751 5.64687 1.05751 5.39375 1.07748 5.17812C1.09413 4.98125 1.14073 4.74375 1.19067 4.6C1.23727 4.46875 1.33381 4.25625 1.40705 4.13125C1.50359 3.97187 1.68669 3.7625 2.05288 3.39687C2.33252 3.11875 2.71203 2.75625 2.8918 2.59375C3.07156 2.43125 3.31791 2.24063 3.43775 2.17188C3.5576 2.10625 3.73737 2.025 3.83724 1.99687C3.94377 1.9625 4.13019 1.94063 4.28665 1.9375ZM3.08821 3.725C2.5023 4.28125 2.29923 4.49375 2.23265 4.625C2.18271 4.71875 2.11946 4.88125 2.0895 4.98438C2.05954 5.10313 2.03957 5.30937 2.03957 5.54688C2.03957 5.82812 2.06287 6.01875 2.12612 6.3125C2.17606 6.52812 2.28924 6.90625 2.37913 7.15625C2.46901 7.40625 2.63879 7.80625 2.75198 8.04688C2.86516 8.2875 3.0649 8.66563 3.19474 8.89062C3.32457 9.1125 3.54428 9.45938 3.67744 9.65625C3.8106 9.85312 4.03365 10.1625 4.17014 10.3438C4.30663 10.525 4.56296 10.8406 4.73607 11.0469C4.91251 11.2531 5.23542 11.6125 5.45514 11.8438C5.67485 12.075 6.05769 12.4438 6.30404 12.6594C6.55039 12.8781 6.89328 13.1656 7.06638 13.3031C7.23949 13.4375 7.56241 13.6781 7.78212 13.8313C8.00184 13.9875 8.33807 14.2094 8.53115 14.3281C8.72424 14.4438 9.04382 14.6312 9.24689 14.7437C9.44996 14.8531 9.85943 15.0625 10.1624 15.2031C10.4653 15.3469 10.9214 15.5406 11.1777 15.6344C11.4341 15.7281 11.7869 15.8438 11.96 15.8875C12.1332 15.9312 12.3961 15.9875 12.5426 16.0156C12.6891 16.0406 12.9587 16.0719 13.1418 16.0813C13.3849 16.0938 13.5413 16.0875 13.7244 16.05C13.8609 16.0219 14.0507 15.9656 14.1405 15.9219C14.2338 15.8813 14.3836 15.7844 14.4734 15.7125C14.5667 15.6375 14.9262 15.3031 15.2757 14.9688C15.6652 14.5969 15.9415 14.3031 15.9882 14.2188C16.0314 14.1344 16.0647 14.0219 16.0647 13.9375C16.0647 13.8531 16.0314 13.7406 15.9882 13.6562C15.9382 13.5625 15.562 13.1844 14.843 12.5063C14.2571 11.95 13.7144 11.4594 13.6445 11.4125C13.5513 11.3531 13.4614 11.325 13.3283 11.3156C13.1951 11.3094 13.1086 11.3219 13.0253 11.3594C12.9621 11.3906 12.5726 11.7281 12.1598 12.1094C11.747 12.4906 11.3575 12.8313 11.2942 12.8625C11.221 12.8969 11.1045 12.9187 10.9747 12.9187C10.7849 12.9219 10.735 12.9062 10.3588 12.7219C10.1324 12.6125 9.74957 12.4031 9.51321 12.2563C9.27352 12.1063 8.89402 11.8469 8.66431 11.675C8.43461 11.5031 7.99851 11.1281 7.69557 10.8438C7.39263 10.5594 7.01645 10.1875 6.85998 10.0156C6.70685 9.84375 6.4605 9.55625 6.32068 9.375C6.17754 9.19375 5.96781 8.9 5.85129 8.71875C5.73811 8.5375 5.5883 8.27812 5.51839 8.14062C5.42518 7.95312 5.38856 7.8375 5.37857 7.67188C5.36193 7.50313 5.37191 7.42812 5.41852 7.34375C5.44848 7.28438 5.80802 6.925 6.21748 6.54688C6.73015 6.06875 6.97983 5.81563 7.02644 5.71875C7.06638 5.64062 7.09967 5.52812 7.09967 5.46875C7.09967 5.40938 7.06638 5.29688 7.02977 5.21875C6.97983 5.11562 6.67023 4.80312 5.84131 4.02187C5.06564 3.29375 4.67615 2.95 4.57961 2.90625C4.49971 2.87188 4.37321 2.84375 4.29331 2.84375C4.21342 2.84687 4.09024 2.87812 4.00369 2.92188C3.91048 2.96563 3.57092 3.2625 3.08821 3.725ZM10.3288 3.90625C10.3921 3.90625 10.5951 3.94062 10.7782 3.98125C10.9613 4.025 11.2243 4.09687 11.3608 4.14375C11.4973 4.1875 11.747 4.2875 11.9101 4.35938C12.0766 4.43438 12.3662 4.59063 12.5593 4.7125C12.7523 4.83438 13.0287 5.03438 13.1751 5.15625C13.3216 5.28125 13.5447 5.49062 13.6678 5.62187C13.7943 5.75312 13.9907 5.99375 14.1073 6.15625C14.2238 6.31875 14.3936 6.59375 14.4834 6.76562C14.5733 6.9375 14.7032 7.225 14.7664 7.40625C14.8297 7.5875 14.9096 7.85313 14.9395 8C14.9695 8.14687 14.9861 8.3125 14.9761 8.36562C14.9661 8.42188 14.9195 8.50938 14.8729 8.5625C14.8263 8.6125 14.7331 8.67188 14.6665 8.69063C14.5966 8.70938 14.4868 8.71875 14.4235 8.70937C14.3603 8.69688 14.267 8.6625 14.2171 8.625C14.1639 8.59062 14.1039 8.525 14.0773 8.475C14.054 8.42812 14.0074 8.27812 13.9741 8.14062C13.9408 8.00313 13.8709 7.77187 13.8176 7.625C13.761 7.47813 13.6678 7.26875 13.6079 7.15625C13.548 7.04375 13.4048 6.81875 13.2883 6.65625C13.1718 6.49375 12.9488 6.23438 12.7923 6.08125C12.6358 5.92813 12.3828 5.71562 12.2264 5.60625C12.0699 5.49687 11.8002 5.3375 11.6271 5.25313C11.454 5.16875 11.2143 5.0625 11.0945 5.02187C10.9747 4.98125 10.715 4.90625 10.5119 4.8625C10.3122 4.81562 10.1124 4.75625 10.0725 4.73125C10.0292 4.70625 9.96596 4.64062 9.92934 4.58437C9.89272 4.52812 9.86276 4.42812 9.86276 4.35938C9.86276 4.29063 9.89272 4.19062 9.92934 4.13125C9.96596 4.07812 10.0459 4.00312 10.1058 3.96875C10.1624 3.93438 10.2656 3.90625 10.3288 3.90625Z" fill="white" stroke="white" stroke-width="0.3875"/>
</svg>
