<svg width="12" height="11" viewBox="0 0 12 11" fill="none" xmlns="http://www.w3.org/2000/svg">
<path d="M7.06061 4.43939H9.78788M7.06061 4.43939V1.71212M7.06061 4.43939L10.3939 1.10606M3.5851 0.660854L4.55674 1.6325C4.79676 1.87251 4.91676 1.99252 4.96172 2.1309C5.00127 2.25262 5.00127 2.38374 4.96172 2.50546C4.91676 2.64385 4.79676 2.76385 4.55675 3.00386L4.19713 3.36348C4.06367 3.49693 3.99695 3.56366 3.94566 3.63184C3.69988 3.95863 3.63542 4.3873 3.77423 4.77191C3.8032 4.85216 3.84735 4.93557 3.93565 5.10237C4.08834 5.39077 4.16469 5.535 4.24867 5.6711C4.64518 6.3137 5.1863 6.85482 5.8289 7.25133C5.96501 7.33531 6.10922 7.41165 6.39763 7.56435L6.5233 7.63087C6.71874 7.73434 6.81646 7.78607 6.91457 7.81825C7.19996 7.91186 7.50994 7.89618 7.78442 7.77424C7.87878 7.73233 7.97079 7.67099 8.15478 7.54833L8.64837 7.21927C8.83846 7.09254 8.93351 7.02918 9.03601 7.00377C9.13177 6.98004 9.23187 6.98004 9.32762 7.00377C9.43013 7.02918 9.52518 7.09254 9.71527 7.21927L10.4223 7.6906C10.7832 7.93122 11 8.33632 11 8.77011C11 9.7255 10.2255 10.5 9.27011 10.5H7.76702C7.10382 10.5 6.45038 10.3403 5.86198 10.0343C3.9796 9.05546 2.44454 7.5204 1.46571 5.63802C1.15974 5.04962 1 4.39618 1 3.73298V2.69676C1 1.48352 1.98352 0.5 3.19676 0.5C3.34241 0.5 3.4821 0.557861 3.5851 0.660854Z" stroke="#3C3C3C" stroke-linecap="round" stroke-linejoin="round"/>
</svg>
