<svg width="24" height="21" viewBox="0 0 24 21" fill="none" xmlns="http://www.w3.org/2000/svg">
<g id="point">
<path d="M8.70001 9.00001C9.30752 9.00001 9.80001 8.55229 9.80001 8.00001C9.80001 7.44773 9.30752 7.00001 8.70001 7.00001C8.0925 7.00001 7.60001 7.44773 7.60001 8.00001C7.60001 8.55229 8.0925 9.00001 8.70001 9.00001Z" fill="#141414"/>
<path d="M8.7 19L8.03678 19.7484L8.7 20.3361L9.36323 19.7484L8.7 19ZM16.4 17C15.8477 17 15.4 17.4477 15.4 18C15.4 18.5523 15.8477 19 16.4 19V17ZM23 19C23.5523 19 24 18.5523 24 18C24 17.4477 23.5523 17 23 17V19ZM15.4 8.2C15.4 8.91335 15.0377 9.89082 14.3402 11.0493C13.6606 12.1779 12.7399 13.3541 11.797 14.4332C10.8575 15.5083 9.91514 16.4653 9.20604 17.1547C8.85208 17.4988 8.55764 17.775 8.35259 17.9642C8.2501 18.0588 8.17003 18.1317 8.11613 18.1804C8.08918 18.2047 8.06878 18.223 8.0554 18.235C8.0487 18.241 8.04377 18.2454 8.04065 18.2481C8.03908 18.2495 8.03798 18.2505 8.03733 18.2511C8.037 18.2514 8.0368 18.2516 8.0367 18.2516C8.03666 18.2517 8.03668 18.2517 8.03665 18.2517C8.0367 18.2516 8.03678 18.2516 8.7 19C9.36323 19.7484 9.36336 19.7483 9.36353 19.7482C9.36362 19.7481 9.36382 19.7479 9.364 19.7477C9.36438 19.7474 9.36487 19.747 9.36548 19.7464C9.3667 19.7453 9.36838 19.7438 9.37052 19.7419C9.3748 19.7381 9.38091 19.7327 9.38879 19.7256C9.40454 19.7115 9.42738 19.691 9.45683 19.6644C9.51572 19.6112 9.60108 19.5336 9.70913 19.4338C9.92518 19.2344 10.2323 18.9464 10.6002 18.5887C11.3349 17.8744 12.3175 16.877 13.303 15.7492C14.2851 14.6253 15.2894 13.3501 16.0536 12.0809C16.7998 10.8416 17.4 9.4749 17.4 8.2H15.4ZM8.7 19C9.36323 18.2516 9.36331 18.2516 9.36335 18.2517C9.36333 18.2517 9.36335 18.2517 9.3633 18.2516C9.36321 18.2516 9.363 18.2514 9.36268 18.2511C9.36203 18.2505 9.36092 18.2495 9.35936 18.2481C9.35624 18.2454 9.3513 18.241 9.34461 18.235C9.33123 18.223 9.31083 18.2047 9.28388 18.1804C9.22998 18.1317 9.14991 18.0588 9.04742 17.9642C8.84237 17.775 8.54793 17.4988 8.19396 17.1547C7.48487 16.4653 6.54247 15.5083 5.60301 14.4332C4.66008 13.3541 3.73939 12.1779 3.05982 11.0493C2.36231 9.89082 2 8.91335 2 8.2H0C0 9.4749 0.600194 10.8416 1.34643 12.0809C2.11062 13.3501 3.11492 14.6253 4.09699 15.7492C5.08254 16.877 6.06514 17.8744 6.79979 18.5887C7.1677 18.9464 7.47482 19.2344 7.69087 19.4338C7.79893 19.5336 7.88429 19.6112 7.94318 19.6644C7.97263 19.691 7.99546 19.7115 8.01122 19.7256C8.0191 19.7327 8.0252 19.7381 8.02948 19.7419C8.03162 19.7438 8.03331 19.7453 8.03452 19.7464C8.03513 19.747 8.03563 19.7474 8.036 19.7477C8.03619 19.7479 8.03638 19.7481 8.03648 19.7482C8.03664 19.7483 8.03678 19.7484 8.7 19ZM2 8.2C2 4.83801 4.9354 2 8.7 2V0C3.95943 0 0 3.60908 0 8.2H2ZM8.7 2C12.4646 2 15.4 4.83801 15.4 8.2H17.4C17.4 3.60909 13.4406 0 8.7 0V2ZM16.4 19H23V17H16.4V19ZM8.70001 10C9.76798 10 10.8 9.19213 10.8 8.00001H8.80001C8.80001 7.98738 8.80322 7.97533 8.8069 7.96741C8.81008 7.96058 8.81128 7.9616 8.80516 7.96717C8.79209 7.97905 8.75761 8.00001 8.70001 8.00001V10ZM10.8 8.00001C10.8 6.80789 9.76798 6.00001 8.70001 6.00001V8.00001C8.75761 8.00001 8.79209 8.02096 8.80516 8.03284C8.81128 8.03841 8.81008 8.03944 8.8069 8.03261C8.80322 8.02469 8.80001 8.01264 8.80001 8.00001H10.8ZM8.70001 6.00001C7.63204 6.00001 6.60001 6.80789 6.60001 8.00001H8.60001C8.60001 8.01264 8.59681 8.02469 8.59313 8.03261C8.58995 8.03944 8.58874 8.03841 8.59487 8.03284C8.60794 8.02096 8.64242 8.00001 8.70001 8.00001V6.00001ZM6.60001 8.00001C6.60001 9.19213 7.63205 10 8.70001 10V8.00001C8.64242 8.00001 8.60794 7.97905 8.59487 7.96717C8.58874 7.9616 8.58995 7.96058 8.59313 7.96741C8.59681 7.97533 8.60001 7.98738 8.60001 8.00001H6.60001Z" fill="#141414"/>
</g>
</svg>
