<svg width="16" height="15" viewBox="0 0 16 15" fill="none" xmlns="http://www.w3.org/2000/svg">
<path d="M6.03709 6.75667C6.4345 6.75667 6.75667 6.4345 6.75667 6.03709C6.75667 5.63968 6.4345 5.31751 6.03709 5.31751C5.63968 5.31751 5.31751 5.63968 5.31751 6.03709C5.31751 6.4345 5.63968 6.75667 6.03709 6.75667Z" fill="#F0820F"/>
<path d="M6.03708 13.9525L5.66037 14.339L6.03708 14.7062L6.4138 14.339L6.03708 13.9525ZM11.0742 12.6932C10.7761 12.6932 10.5345 12.9349 10.5345 13.2329C10.5345 13.531 10.7761 13.7726 11.0742 13.7726V12.6932ZM15.3917 13.7726C15.6897 13.7726 15.9313 13.531 15.9313 13.2329C15.9313 12.9349 15.6897 12.6932 15.3917 12.6932V13.7726ZM10.5345 6.181C10.5345 6.75825 10.2731 7.50402 9.81372 8.34333C9.36188 9.16878 8.75268 10.0241 8.13305 10.8041C7.515 11.5821 6.89556 12.274 6.42992 12.772C6.19739 13.0207 6.00389 13.2203 5.86901 13.3572C5.80158 13.4257 5.74884 13.4785 5.71324 13.5138C5.69544 13.5315 5.68193 13.5449 5.67302 13.5536C5.66856 13.558 5.66525 13.5613 5.66313 13.5633C5.66207 13.5644 5.66131 13.5651 5.66084 13.5656C5.66061 13.5658 5.66046 13.566 5.66038 13.566C5.66034 13.5661 5.66034 13.5661 5.66032 13.5661C5.66033 13.5661 5.66037 13.566 6.03708 13.9525C6.4138 14.339 6.41387 14.3389 6.41396 14.3388C6.41402 14.3387 6.41413 14.3386 6.41425 14.3385C6.41447 14.3383 6.41478 14.338 6.41516 14.3376C6.41592 14.3369 6.41698 14.3358 6.41834 14.3345C6.42106 14.3319 6.42498 14.328 6.43005 14.323C6.4402 14.313 6.45497 14.2984 6.47406 14.2795C6.51225 14.2415 6.56773 14.186 6.63803 14.1146C6.77861 13.9719 6.97864 13.7655 7.21833 13.5092C7.69715 12.9971 8.33698 12.2827 8.9782 11.4755C9.61784 10.6703 10.2679 9.76155 10.7605 8.86159C11.2456 7.97548 11.6139 7.03446 11.6139 6.181H10.5345ZM6.03708 13.9525C6.4138 13.566 6.41383 13.5661 6.41385 13.5661C6.41383 13.5661 6.41383 13.5661 6.41379 13.566C6.41371 13.566 6.41355 13.5658 6.41332 13.5656C6.41286 13.5651 6.4121 13.5644 6.41104 13.5633C6.40892 13.5613 6.40561 13.558 6.40115 13.5536C6.39224 13.5449 6.37873 13.5315 6.36093 13.5138C6.32533 13.4785 6.27259 13.4257 6.20516 13.3572C6.07027 13.2203 5.87678 13.0207 5.64424 12.772C5.17861 12.274 4.55917 11.5821 3.94112 10.8041C3.32149 10.0241 2.71228 9.16878 2.26045 8.34333C1.80104 7.50402 1.53969 6.75825 1.53969 6.181H0.460312C0.460312 7.03446 0.8286 7.97548 1.31364 8.86159C1.80626 9.76155 2.45632 10.6703 3.09596 11.4755C3.73719 12.2827 4.37702 12.9971 4.85583 13.5092C5.09553 13.7655 5.29555 13.9719 5.43613 14.1146C5.50644 14.186 5.56192 14.2415 5.6001 14.2795C5.6192 14.2984 5.63397 14.313 5.64412 14.323C5.64919 14.328 5.65311 14.3319 5.65583 14.3345C5.65719 14.3358 5.65825 14.3369 5.65901 14.3376C5.65939 14.338 5.65969 14.3383 5.65992 14.3385C5.66003 14.3386 5.66015 14.3387 5.6602 14.3388C5.6603 14.3389 5.66037 14.339 6.03708 13.9525ZM1.53969 6.181C1.53969 3.60324 3.56747 1.53969 6.03708 1.53969V0.460312C2.94289 0.460312 0.460312 3.03598 0.460312 6.181H1.53969ZM6.03708 1.53969C8.5067 1.53969 10.5345 3.60324 10.5345 6.181H11.6139C11.6139 3.03598 9.13128 0.460312 6.03708 0.460312V1.53969ZM11.0742 13.7726H15.3917V12.6932H11.0742V13.7726ZM6.03709 7.29636C6.73256 7.29636 7.29636 6.73256 7.29636 6.03709H6.21699C6.21699 6.13644 6.13644 6.21699 6.03709 6.21699V7.29636ZM7.29636 6.03709C7.29636 5.34162 6.73256 4.77782 6.03709 4.77782V5.85719C6.13644 5.85719 6.21699 5.93774 6.21699 6.03709H7.29636ZM6.03709 4.77782C5.34162 4.77782 4.77782 5.34162 4.77782 6.03709H5.85719C5.85719 5.93774 5.93774 5.85719 6.03709 5.85719V4.77782ZM4.77782 6.03709C4.77782 6.73256 5.34162 7.29636 6.03709 7.29636V6.21699C5.93774 6.21699 5.85719 6.13644 5.85719 6.03709H4.77782Z" fill="#F0820F"/>
</svg>
