<svg width="63" height="15" viewBox="0 0 63 15" fill="none" xmlns="http://www.w3.org/2000/svg">
<g id="Vector">
<path d="M3.45797 5.77689C3.29742 5.987 3.0862 6.14562 2.83283 6.25273C2.57287 6.36136 2.2947 6.41665 2.01403 6.41547C1.73488 6.41935 1.45735 6.37155 1.19473 6.27436C0.958852 6.18643 0.743271 6.04931 0.561561 5.87165C0.382141 5.69368 0.241276 5.4789 0.148149 5.2413C0.0472693 4.98088 -0.00301294 4.70271 0.000139565 4.42248C0.000139565 4.14439 0.0468007 3.88689 0.143632 3.6433C0.232265 3.40753 0.367177 3.19297 0.539988 3.01296C0.712244 2.83419 0.915824 2.6904 1.14004 2.58913C1.37233 2.48614 1.6257 2.43051 1.90415 2.43051C2.20418 2.43051 2.48263 2.46914 2.736 2.54587C2.98937 2.62312 3.2046 2.75187 3.38171 2.93211L3.07365 3.46769C2.92466 3.32909 2.74918 3.22386 2.55839 3.1587C2.37684 3.09867 2.1872 3.06843 1.99647 3.0691C1.82839 3.0691 1.66784 3.10308 1.51181 3.16694C1.35801 3.23067 1.21751 3.32401 1.0979 3.44195C0.975603 3.56304 0.879231 3.70897 0.814927 3.87041C0.742142 4.04616 0.706243 4.23566 0.709567 4.42659C0.709567 4.63722 0.747197 4.82571 0.818942 4.98793C0.891189 5.15582 0.988021 5.29692 1.10994 5.41691C1.23286 5.53742 1.37584 5.62703 1.54091 5.68728C1.70838 5.75146 1.88595 5.7834 2.0647 5.78152C2.29248 5.78152 2.49969 5.73414 2.67679 5.64402C2.85229 5.55702 3.00998 5.43641 3.14138 5.28868L3.45797 5.77689ZM4.32744 6.32535V2.51188H4.99472V5.35305L7.16465 2.51188H7.83193V6.32586H7.16465V3.48469L4.99472 6.32586L4.32744 6.32535ZM12.252 5.77689C12.0879 5.98877 11.8725 6.15283 11.6274 6.25273C11.3673 6.36131 11.0889 6.41659 10.8081 6.41547C10.5291 6.41931 10.2518 6.37151 9.98931 6.27436C9.75328 6.18644 9.53753 6.04932 9.35564 5.87165C9.17622 5.69368 9.03535 5.4789 8.94223 5.2413C8.84135 4.98088 8.79107 4.70271 8.79422 4.42248C8.79422 4.14439 8.84088 3.88689 8.93771 3.6433C9.03103 3.39869 9.16599 3.18909 9.33407 3.01296C9.50632 2.83419 9.7099 2.6904 9.93412 2.58913C10.1747 2.48038 10.4354 2.42627 10.6982 2.43051C10.9983 2.43051 11.2767 2.46914 11.5301 2.54587C11.7834 2.62312 11.9987 2.75187 12.1763 2.93211L11.8677 3.46769C11.719 3.329 11.5437 3.22376 11.353 3.1587C11.1714 3.0987 10.9818 3.06846 10.791 3.0691C10.4558 3.07034 10.1339 3.20383 9.89197 3.44195C9.77075 3.56396 9.67453 3.70964 9.609 3.87041C9.53622 4.04616 9.50032 4.23566 9.50365 4.42659C9.50365 4.63722 9.54178 4.82571 9.61352 4.98793C9.68527 5.15582 9.7821 5.29692 9.90452 5.41691C10.0269 5.53742 10.1704 5.62703 10.3355 5.68728C10.5001 5.74702 10.6731 5.78152 10.8588 5.78152C11.0871 5.78152 11.2898 5.73414 11.4709 5.64402C11.6464 5.55702 11.8041 5.43641 11.9355 5.28868L12.252 5.77689ZM12.5942 2.51188H16.0179V3.18909H14.6417V6.32535H13.9744V3.18909H12.5982V2.51188H12.5942Z" fill="black"/>
<path fill-rule="evenodd" clip-rule="evenodd" d="M19.1341 6.28723C19.3875 6.20586 19.6027 6.08124 19.7883 5.91026L19.5856 5.3788C19.4632 5.49055 19.2987 5.58479 19.1005 5.66204C18.9018 5.73928 18.678 5.77739 18.4332 5.77739C18.0659 5.77739 17.7619 5.67903 17.5211 5.47767C17.2802 5.2758 17.1498 4.99359 17.1197 4.6331H20.0081C20.0388 4.48241 20.0529 4.32868 20.0502 4.17476C20.0534 3.93023 20.0058 3.68781 19.9107 3.46357C19.8243 3.25553 19.6981 3.06744 19.5395 2.91048C19.3787 2.75499 19.1891 2.63416 18.9821 2.55514C18.7653 2.46881 18.5347 2.42514 18.3022 2.42639C17.9897 2.42639 17.7152 2.48201 17.4744 2.585C17.2474 2.68318 17.0421 2.82753 16.8708 3.00935C16.7045 3.19025 16.5767 3.40476 16.4956 3.63918C16.4064 3.88881 16.362 4.15298 16.3646 4.41886C16.3646 4.7191 16.4148 4.99307 16.5081 5.23769C16.5984 5.47465 16.7366 5.6893 16.9135 5.86752C17.0866 6.04261 17.2973 6.17599 17.5467 6.27023C17.8136 6.36741 18.0953 6.41519 18.3785 6.41134C18.635 6.40972 18.8898 6.36753 19.1341 6.28723ZM17.4453 3.35182C17.652 3.15921 17.9265 3.06497 18.2726 3.06497C18.5978 3.06497 18.8596 3.15509 19.0498 3.33534C19.24 3.51507 19.3408 3.7638 19.3579 4.08052H17.0781C17.1104 3.8001 17.2409 3.54078 17.4453 3.35182Z" fill="black"/>
<path d="M20.9578 2.51189H21.5659L23.0098 4.40188L24.3775 2.51189H24.9685V6.32586H24.3012V3.54494L23.0013 5.31444H22.9757L21.6251 3.54443V6.32535H20.9578V2.51189Z" fill="black"/>
<path fill-rule="evenodd" clip-rule="evenodd" d="M26.7832 2.52476C26.5809 2.57911 26.3876 2.66416 26.2098 2.7771L26.3869 3.31784C26.5389 3.24059 26.6909 3.17622 26.843 3.1206C26.995 3.06395 27.1891 3.0382 27.4214 3.0382C27.6071 3.0382 27.7551 3.0691 27.869 3.12884C27.9829 3.18446 28.0671 3.27046 28.1263 3.37346C28.1855 3.47645 28.2237 3.60469 28.2447 3.75455C28.2658 3.90441 28.2743 4.06714 28.2743 4.24327C28.1377 4.14554 27.9819 4.07963 27.8178 4.05015C27.6595 4.01784 27.4986 4.0006 27.3371 3.99865C27.1385 3.99865 26.9528 4.02903 26.7752 4.08002C26.5981 4.13151 26.4461 4.20876 26.3237 4.31176C26.1985 4.41452 26.0974 4.54473 26.0277 4.69285C25.9535 4.855 25.9161 5.03231 25.9183 5.21144C25.9183 5.58429 26.0237 5.87577 26.2344 6.08176C26.4461 6.28724 26.7245 6.38972 27.0707 6.38972C27.3833 6.38972 27.6327 6.33411 27.8223 6.22287C28.0125 6.11112 28.1645 5.98289 28.2738 5.83663V6.32999H28.899V3.99041C28.899 3.49293 28.7936 3.10772 28.5779 2.83684C28.3672 2.5675 27.9909 2.43 27.4591 2.43C27.2228 2.43 26.9985 2.46451 26.7832 2.52476ZM27.8991 5.61467C27.747 5.72591 27.5479 5.77689 27.3035 5.77689C27.0878 5.77689 26.9192 5.72127 26.8013 5.61416C26.6829 5.50292 26.6237 5.35666 26.6237 5.17642C26.6237 5.07033 26.6448 4.98021 26.6914 4.89833C26.7381 4.81644 26.8013 4.7531 26.8731 4.7016C26.9515 4.64774 27.0387 4.60852 27.1304 4.58573C27.2278 4.55998 27.3246 4.54711 27.4259 4.54711C27.7556 4.54711 28.038 4.62848 28.2703 4.79945V5.28353C28.1609 5.40962 28.0361 5.52126 27.8991 5.61467ZM34.7891 1.17035C34.9241 1.10649 35.05 0.999376 35.1689 0.840761L34.8057 0.305176C34.7129 0.433922 34.6075 0.523529 34.4891 0.570907C34.3636 0.621249 34.2335 0.658517 34.1008 0.682146L33.9743 0.705319C33.864 0.724889 33.7466 0.746519 33.6196 0.768148C33.4161 0.806797 33.2177 0.870065 33.0286 0.956631C32.7286 1.0895 32.4883 1.26923 32.3061 1.49634C32.124 1.72345 31.9815 1.98042 31.8842 2.26366C31.7856 2.5506 31.7191 2.84811 31.686 3.15047C31.6519 3.45946 31.6353 3.75455 31.6353 4.03727C31.6353 4.40188 31.6815 4.73147 31.7743 5.02707C31.8676 5.32319 31.9981 5.57141 32.1707 5.77277C32.3443 5.97877 32.5515 6.13326 32.7963 6.2445C33.0412 6.35574 33.3156 6.41135 33.6236 6.41135C33.9066 6.41135 34.1685 6.35573 34.4048 6.25274C34.6326 6.15377 34.8393 6.00976 35.0129 5.82891C35.1815 5.65278 35.3169 5.44267 35.4092 5.20732C35.5062 4.96832 35.5551 4.71173 35.5532 4.45286C35.5532 4.16602 35.5111 3.90492 35.4308 3.67318C35.3569 3.45224 35.239 3.24951 35.0846 3.07786C34.93 2.90906 34.741 2.77721 34.5312 2.69162C34.3002 2.59819 34.0536 2.55167 33.8053 2.55463C33.6447 2.55463 33.4887 2.57626 33.3367 2.619C33.1888 2.66179 33.0468 2.72374 32.9142 2.80337C32.7855 2.87902 32.6677 2.9726 32.564 3.08146C32.4627 3.18909 32.3784 3.30908 32.3192 3.44607H32.3021C32.3145 3.26475 32.3385 3.08446 32.3739 2.90637C32.412 2.722 32.4667 2.54588 32.5389 2.37902C32.6107 2.21216 32.7035 2.06179 32.8174 1.92481C32.9395 1.78653 33.0892 1.67692 33.2564 1.60345C33.4402 1.5136 33.6347 1.44885 33.8349 1.41085L33.9673 1.38613C34.0993 1.36141 34.2252 1.33772 34.3456 1.31197C34.5062 1.27798 34.6537 1.23421 34.7891 1.17035ZM32.4411 4.83447C32.376 4.61809 32.3448 4.39245 32.3488 4.16602C32.3771 4.03604 32.4286 3.91259 32.5008 3.80192C32.5751 3.68415 32.6678 3.57976 32.7752 3.49293C33.0232 3.29354 33.3297 3.18642 33.6447 3.18909C34.0376 3.18909 34.3331 3.31269 34.5398 3.55782C34.747 3.80604 34.8483 4.11401 34.8483 4.48737C34.8483 4.67173 34.8142 4.8391 34.7555 4.99309C34.6984 5.14502 34.6121 5.28363 34.5018 5.40067C34.3915 5.51771 34.2594 5.6108 34.1133 5.67441C33.9618 5.7429 33.7967 5.77741 33.6111 5.77741C33.4255 5.77741 33.2564 5.73878 33.1004 5.66153C32.9453 5.58584 32.8083 5.47614 32.699 5.34018C32.5846 5.18867 32.4969 5.01742 32.4411 4.83447ZM40.6702 2.51189H40.003V6.32587H40.6702V2.51189ZM37.1828 2.51189V3.65618H37.7994C38.0904 3.65618 38.3262 3.69481 38.5169 3.76742C38.707 3.84055 38.8591 3.93891 38.9729 4.0589C39.0868 4.17889 39.1671 4.32051 39.2138 4.47862C39.2599 4.63723 39.2855 4.79997 39.2855 4.97146C39.2855 5.14295 39.2599 5.30619 39.2052 5.46893C39.1546 5.63166 39.0658 5.77277 38.9473 5.90152C38.8294 6.03026 38.6689 6.13326 38.4657 6.21051C38.2635 6.28724 38.0187 6.32999 37.7232 6.32999H36.5115V2.51189H37.1828ZM37.1828 5.6914H37.6685C38.0021 5.6914 38.2384 5.63166 38.3734 5.51116C38.5089 5.39117 38.5761 5.22019 38.5761 4.99309C38.5761 4.76134 38.5043 4.58625 38.3694 4.46574C38.2299 4.34575 37.9976 4.2855 37.677 4.2855H37.1828V5.6914Z" fill="black"/>
<path d="M45.0823 5.77689C44.9218 5.98701 44.7106 6.14562 44.4572 6.25274C44.1972 6.36131 43.9191 6.4166 43.6384 6.41547C43.3592 6.41935 43.0817 6.37155 42.8191 6.27437C42.5831 6.18657 42.3675 6.04943 42.1859 5.87165C42.0065 5.69358 41.8655 5.47883 41.772 5.24131C41.6715 4.98078 41.6214 4.70266 41.6245 4.42248C41.6245 4.14439 41.6707 3.8869 41.768 3.64331C41.8566 3.40753 41.9915 3.19298 42.1643 3.01297C42.3339 2.83272 42.5356 2.69625 42.7644 2.58914C43.005 2.48034 43.2656 2.42622 43.5285 2.43052C43.828 2.43052 44.107 2.46915 44.3604 2.54588C44.6137 2.62313 44.829 2.75187 45.0061 2.93212L44.698 3.4677C44.549 3.3291 44.3735 3.22386 44.1827 3.15871C44.0012 3.09867 43.8116 3.06843 43.6208 3.0691C43.4527 3.0691 43.2922 3.10309 43.1357 3.16695C42.982 3.23068 42.8417 3.32403 42.7222 3.44195C42.6009 3.56382 42.5046 3.70954 42.4393 3.87042C42.3665 4.04616 42.3306 4.23567 42.3339 4.4266C42.3339 4.63723 42.3716 4.82572 42.4433 4.98794C42.515 5.15582 42.6124 5.29693 42.7343 5.41692C42.8572 5.53742 43.0002 5.62703 43.1653 5.68729C43.3303 5.74702 43.5034 5.78153 43.6891 5.78153C43.9006 5.7843 44.11 5.73726 44.3012 5.64403C44.4767 5.55703 44.6343 5.43642 44.7657 5.28869L45.0823 5.77689ZM45.4235 2.51189H48.8482V3.18909H47.4715V6.32535H46.8042V3.18909H45.4285V2.51189H45.4235Z" fill="black"/>
<path fill-rule="evenodd" clip-rule="evenodd" d="M50.2415 2.51241H49.5742V8.02274H50.2415V6.15026C50.3764 6.24038 50.537 6.30476 50.7226 6.3475C50.9083 6.39024 51.1024 6.41136 51.3011 6.41136C51.5966 6.41136 51.8625 6.35574 52.1034 6.25326C52.3343 6.15185 52.5437 6.00487 52.7195 5.82067C52.8939 5.63368 53.0289 5.41172 53.1158 5.1687C53.2091 4.91636 53.2558 4.64599 53.2558 4.35914C53.2558 4.0759 53.2137 3.81481 53.1334 3.57894C53.0578 3.35495 52.9402 3.14832 52.7872 2.97074C52.6371 2.79755 52.4508 2.66131 52.2423 2.57215C52.0143 2.47155 51.768 2.42188 51.5199 2.42641C51.259 2.42641 51.0141 2.4779 50.7818 2.5809C50.5495 2.6839 50.3679 2.8075 50.2415 2.96199V2.51241ZM50.7061 3.21948C50.8962 3.11649 51.1024 3.06499 51.3267 3.06499C51.5209 3.06499 51.694 3.09485 51.8505 3.15923C52.0025 3.2236 52.1289 3.31373 52.2348 3.43372C52.3402 3.55371 52.4204 3.69121 52.4706 3.85343C52.5258 4.01616 52.5509 4.19229 52.5509 4.38489C52.5509 4.59089 52.5173 4.77474 52.4586 4.94623C52.4032 5.10882 52.3154 5.25774 52.2007 5.38345C52.0855 5.50764 51.9459 5.6054 51.7913 5.67029C51.6189 5.74442 51.4333 5.78089 51.2464 5.77741C51.0653 5.77741 50.8962 5.7563 50.7357 5.71355C50.5599 5.66446 50.3931 5.58618 50.242 5.48181V3.59182C50.3599 3.44659 50.5164 3.32248 50.7061 3.21948ZM58.3723 2.51189H57.705V6.32587H58.3723V2.51189ZM54.8814 2.51189V3.65619H55.4975C55.7885 3.65619 56.0253 3.69481 56.2149 3.76743C56.4056 3.84055 56.5576 3.93892 56.6715 4.05891C56.7854 4.1789 56.8656 4.32052 56.9118 4.47862C56.9585 4.63724 56.9835 4.79997 56.9835 4.97146C56.9835 5.14295 56.9585 5.3062 56.9033 5.46894C56.8531 5.63167 56.7643 5.77278 56.6459 5.90152C56.528 6.03027 56.3674 6.13327 56.1642 6.21052C55.9621 6.28725 55.7172 6.32999 55.4217 6.32999H54.2101V2.51189H54.8814ZM54.8859 5.69141H55.3715C55.7047 5.69141 55.9415 5.63167 56.0764 5.51116C56.2114 5.39117 56.2791 5.2202 56.2791 4.99309C56.2791 4.76135 56.2074 4.58625 56.0724 4.46575C55.933 4.34575 55.7007 4.2855 55.3801 4.2855H54.8859V5.69141Z" fill="black"/>
<path d="M61.5731 4.35033L63 6.32581H62.1812L61.0789 4.78291L59.9601 6.32581H59.1834L60.6018 4.38432L59.2672 2.51183H60.087L61.1045 3.95173L62.1381 2.51183H62.9157L61.5731 4.35033ZM2.96415 11.0395H0.91665V14.219H0.249367V10.4055H3.63093V14.219H2.96365L2.96415 11.0395ZM7.41789 11.0822H6.10088L6.05824 11.7249C6.01208 12.2692 5.94886 12.7065 5.86006 13.0402C5.77125 13.3749 5.66138 13.6319 5.53495 13.8116C5.40851 13.9919 5.26051 14.1155 5.09143 14.1762C4.91701 14.2412 4.73258 14.2731 4.54707 14.2705L4.4964 13.6103C4.58247 13.6123 4.66778 13.5932 4.74524 13.5547C4.83856 13.5119 4.93088 13.4177 5.01968 13.2766C5.10849 13.1303 5.18876 12.9248 5.26051 12.6586C5.33225 12.3892 5.37891 12.038 5.404 11.5962L5.47173 10.4091H8.08517V14.2231H7.41789V11.0822Z" fill="black"/>
<path fill-rule="evenodd" clip-rule="evenodd" d="M9.88382 10.4143C9.66808 10.474 9.47392 10.5595 9.30935 10.6666L9.48697 11.2068C9.63898 11.1296 9.791 11.0652 9.94252 11.0096C10.0945 10.954 10.2887 10.9282 10.521 10.9282C10.7066 10.9282 10.8546 10.9581 10.9685 11.0178C11.0829 11.074 11.1672 11.1595 11.2264 11.2625C11.2851 11.3655 11.3232 11.4942 11.3443 11.6435C11.3654 11.7939 11.3739 11.9567 11.3739 12.1323C11.2372 12.0347 11.0814 11.9689 10.9174 11.9397C10.759 11.9073 10.5981 11.8901 10.4367 11.8882C10.2385 11.8882 10.0524 11.918 9.87479 11.9695C9.69768 12.021 9.54567 12.0983 9.42325 12.2013C9.2981 12.304 9.19696 12.4343 9.12723 12.5824C9.05321 12.7446 9.01599 12.9219 9.01836 13.101C9.01836 13.4733 9.12372 13.7653 9.33444 13.9708C9.54516 14.1762 9.82462 14.2792 10.1708 14.2792C10.4834 14.2792 10.7322 14.2236 10.9224 14.1119C11.112 14.0006 11.2635 13.8719 11.3739 13.7256V14.219H11.9991V11.8794C11.9991 11.3824 11.8932 10.9967 11.678 10.7269C11.4667 10.4565 11.0909 10.32 10.5591 10.32C10.331 10.3202 10.1038 10.3523 9.88382 10.4143ZM11.0026 13.5032C10.8511 13.6149 10.6524 13.6664 10.4076 13.6664C10.1879 13.6664 10.0233 13.6108 9.9054 13.5032C9.78699 13.3919 9.72779 13.2457 9.72779 13.0664C9.72779 12.9593 9.74886 12.8692 9.79552 12.7878C9.84168 12.7065 9.90539 12.6421 9.97714 12.5906C10.0489 12.5391 10.1372 12.5005 10.2345 12.4747C10.331 12.4492 10.4303 12.4363 10.53 12.4366C10.8592 12.4366 11.1421 12.518 11.3744 12.689V13.1731C11.2647 13.2988 11.1398 13.4101 11.0026 13.5032Z" fill="black"/>
<path d="M12.6528 10.4055H16.077V11.0822H14.7003V14.2185H14.033V11.0822H12.6573V10.4055H12.6528Z" fill="black"/>
<path fill-rule="evenodd" clip-rule="evenodd" d="M19.1932 14.1804C19.4465 14.099 19.6618 13.9744 19.8474 13.8034L19.6447 13.2719C19.5223 13.3837 19.3577 13.4779 19.159 13.5552C18.9609 13.6324 18.7371 13.6705 18.4918 13.6705C18.125 13.6705 17.821 13.5722 17.5801 13.3708C17.3393 13.1694 17.2089 12.8867 17.1788 12.5262H20.0671C20.0962 12.3939 20.1093 12.243 20.1093 12.0679C20.1093 11.8068 20.0626 11.5709 19.9698 11.3567C19.8834 11.1487 19.7569 10.9608 19.598 10.8041C19.4376 10.6483 19.2482 10.5273 19.0411 10.4483C18.8244 10.362 18.5938 10.3183 18.3613 10.3195C18.0487 10.3195 17.7743 10.3751 17.5335 10.4781C17.3063 10.5761 17.101 10.7204 16.9299 10.9025C16.7634 11.0834 16.6353 11.2979 16.5536 11.5323C16.4648 11.782 16.4207 12.0462 16.4232 12.312C16.4232 12.6122 16.4734 12.8862 16.5667 13.1308C16.66 13.3749 16.799 13.585 16.9721 13.7606C17.1451 13.9362 17.3564 14.0691 17.6057 14.1634C17.8725 14.2607 18.154 14.3087 18.4371 14.305C18.6864 14.305 18.9398 14.2617 19.1932 14.1804ZM17.5004 11.2408C17.7071 11.0482 17.9815 10.954 18.3277 10.954C18.6573 10.954 18.9147 11.0482 19.1049 11.2238C19.2945 11.4041 19.3959 11.6523 19.4129 11.9695H17.1331C17.1653 11.6889 17.2958 11.4299 17.5004 11.2408ZM20.4344 10.4055H21.2788L22.5662 12.244L21.19 14.219H20.3712L21.8146 12.2435L20.4344 10.4055ZM22.7308 10.4055H23.398V14.219H22.7308V10.4055ZM25.7832 14.219L24.3142 12.2435L25.6864 10.405H24.8585L23.5626 12.2435L24.9559 14.219H25.7832ZM28.8316 14.1804C29.085 14.099 29.3002 13.9744 29.4859 13.8034L29.2832 13.2719C29.1608 13.3837 28.9962 13.4779 28.798 13.5552C28.5993 13.6324 28.3756 13.6705 28.1307 13.6705C27.7635 13.6705 27.4594 13.5722 27.2186 13.3708C26.9778 13.1694 26.8473 12.8867 26.8172 12.5262H29.7056C29.7352 12.3939 29.7478 12.243 29.7478 12.0679C29.7478 11.8068 29.7016 11.5709 29.6083 11.3567C29.5218 11.1488 29.3956 10.9609 29.237 10.8041C29.0763 10.6483 28.8868 10.5273 28.6796 10.4483C28.4629 10.3619 28.2323 10.3183 27.9998 10.3195C27.6877 10.3195 27.4128 10.3751 27.1719 10.4781C26.945 10.5762 26.7398 10.7206 26.5689 10.9025C26.402 11.0832 26.2738 11.2977 26.1926 11.5323C26.1036 11.782 26.0594 12.0461 26.0622 12.312C26.0622 12.6122 26.1123 12.8862 26.2056 13.1308C26.2985 13.3749 26.4379 13.585 26.611 13.7606C26.7841 13.9362 26.9948 14.0691 27.2442 14.1634C27.5111 14.2607 27.7928 14.3087 28.076 14.305C28.3326 14.303 28.5874 14.261 28.8316 14.1804ZM27.1388 11.2408C27.346 11.0482 27.6205 10.954 27.9667 10.954C28.2918 10.954 28.5532 11.0482 28.7433 11.2238C28.9335 11.4041 29.0343 11.6523 29.0514 11.9695H26.7716C26.8038 11.6889 26.9343 11.4299 27.1388 11.2408ZM32.4545 9.12423C32.0617 9.12423 31.8464 8.90124 31.8123 8.45578H31.1837C31.1837 8.62675 31.2133 8.78125 31.268 8.92699C31.3231 9.07273 31.4034 9.19684 31.5088 9.29984C31.6141 9.40284 31.7496 9.48421 31.9051 9.54806C32.0617 9.61244 32.2433 9.6423 32.45 9.6423C32.6248 9.64583 32.7986 9.6138 32.9612 9.54806C33.1133 9.48833 33.2397 9.40284 33.3496 9.29984C33.4572 9.19493 33.542 9.06788 33.5984 8.92699C33.6576 8.78125 33.6872 8.62675 33.6872 8.45578H33.0626C33.0325 8.90124 32.8258 9.12423 32.4545 9.12423ZM30.6514 10.405V14.219H31.3186L33.4886 11.3778V14.219H34.1558V10.405H33.4886L31.3186 13.2462V10.405H30.6514Z" fill="black"/>
</g>
</svg>
