<svg width="21" height="20" viewBox="0 0 21 20" fill="none" xmlns="http://www.w3.org/2000/svg">
<path fill-rule="evenodd" clip-rule="evenodd" d="M2.32043 10.0798V18.1249H10.3656H18.4107V10.0798V2.03467H10.3656H2.32043V10.0798ZM4.93249 6.37068V9.66188H4.14887H3.36526V6.37068V3.07949H4.14887H4.93249V6.37068ZM7.44007 6.37068V9.66188H6.60421H5.76835V6.37068V3.07949H6.60421H7.44007V6.37068ZM9.94764 6.37068V9.66188H9.11178H8.27593V6.37068V3.07949H9.11178H9.94764V6.37068ZM17.3659 3.86311V4.64673H14.0747H10.7835V3.86311V3.07949H14.0747H17.3659V3.86311ZM17.3659 6.33066V7.1543H14.0747H10.7835V6.32001V5.48572L13.8918 5.45803C15.6015 5.44278 17.0824 5.44758 17.183 5.46868C17.3385 5.50118 17.3659 5.63042 17.3659 6.33066ZM17.3659 8.82602V9.66188H14.0747H10.7835V8.82602V7.99016H14.0747H17.3659V8.82602ZM9.94764 11.3336V12.1695H6.65645H3.36526V11.3336V10.4977H6.65645H9.94764V11.3336ZM12.4552 13.7889V17.0801H11.6194H10.7835V13.7889V10.4977H11.6194H12.4552V13.7889ZM14.9785 13.6322C14.9871 15.3562 14.9988 16.8255 15.0046 16.8973C15.012 16.9898 14.7639 17.0368 14.1531 17.0582L13.2911 17.0886V13.7931V10.4977H14.1269H14.9628L14.9785 13.6322ZM17.3659 13.7889V17.0801H16.5823H15.7987V13.7889V10.4977H16.5823H17.3659V13.7889ZM9.94764 13.8412V14.677H6.65645H3.36526V13.8412V13.0053H6.65645H9.94764V13.8412ZM9.94764 16.2965V17.0801H6.65645H3.36526V16.2965V15.5129H6.65645H9.94764V16.2965Z" fill="#F0820F"/>
</svg>
