<svg width="164" height="40" viewBox="0 0 164 40" fill="none" xmlns="http://www.w3.org/2000/svg">
<path d="M49.4144 37.7448V28.2643H51.1574L51.6888 28.5183C52.0997 28.4477 52.6028 28.3913 53.1979 28.349C53.7931 28.2925 54.5016 28.2643 55.3235 28.2643H56.3863C56.7972 28.2643 57.194 28.3208 57.5766 28.4336C57.9592 28.5324 58.2426 28.6805 58.4268 28.878C58.7953 28.6946 59.3054 28.5465 59.9572 28.4336C60.6091 28.3208 61.4593 28.2643 62.5079 28.2643H63.5707C64.2792 28.2643 64.8248 28.3631 65.2074 28.5606C65.59 28.7581 65.8592 29.005 66.0151 29.3012C66.1852 29.5975 66.2843 29.9008 66.3127 30.2112C66.3552 30.5075 66.3765 30.7614 66.3765 30.973V37.7448H63.7833V30.9307C63.7833 30.3664 63.4432 30.0842 62.763 30.0842H59.7872C59.5605 30.0842 59.4046 30.1124 59.3196 30.1689C59.2345 30.2253 59.192 30.3523 59.192 30.5498V37.7448H56.5988V30.9307C56.5988 30.3664 56.2587 30.0842 55.5786 30.0842H52.6453C52.376 30.0842 52.1989 30.1124 52.1139 30.1689C52.043 30.2112 52.0076 30.3382 52.0076 30.5498V37.7448H49.4144Z" fill="#F0820F"/>
<path d="M72.84 37.7448C71.7631 37.7448 70.9837 37.4979 70.5019 37.0041C70.0201 36.4962 69.7792 35.8049 69.7792 34.9303C69.7792 34.0133 70.0272 33.3079 70.5231 32.8141C71.0333 32.3203 71.8056 32.0734 72.84 32.0734H73.9241C74.9868 32.0734 75.9434 32.1016 76.7936 32.1581C77.6438 32.2145 78.3452 32.2709 78.8979 32.3274V30.9307C78.8979 30.8037 78.8837 30.6768 78.8554 30.5498C78.827 30.4087 78.742 30.2958 78.6003 30.2112C78.4586 30.1266 78.2177 30.0842 77.8776 30.0842H76.8148C75.2703 30.0842 73.9807 30.1124 72.9463 30.1689C71.9119 30.2112 71.2104 30.2535 70.842 30.2958L70.6082 28.6876C70.6082 28.49 71.1466 28.3701 72.2236 28.3278C73.3006 28.2855 75.1002 28.2643 77.6225 28.2643H78.6853C79.3939 28.2643 79.9394 28.3631 80.322 28.5606C80.7046 28.7581 80.9739 29.005 81.1297 29.3012C81.2998 29.5975 81.399 29.9008 81.4273 30.2112C81.4698 30.5075 81.4911 30.7614 81.4911 30.973V37.7448H79.7481L78.9192 37.3215C78.324 37.4203 77.6084 37.519 76.7723 37.6178C75.9363 37.7024 74.9798 37.7448 73.9028 37.7448H72.84ZM73.3927 35.9249H78.2602C78.572 35.9249 78.7562 35.8966 78.8129 35.8402C78.8696 35.7838 78.8979 35.6074 78.8979 35.3112V33.6817H73.3927C73.0101 33.6817 72.7408 33.7734 72.5849 33.9568C72.4432 34.1402 72.3724 34.4294 72.3724 34.8245C72.3724 35.2195 72.4574 35.5016 72.6275 35.6709C72.7975 35.8402 73.0526 35.9249 73.3927 35.9249Z" fill="#F0820F"/>
<path d="M85.2186 37.7448V28.2643H86.9616L87.7693 28.6876C88.1378 28.49 88.5345 28.3349 88.9596 28.222C89.3848 28.1091 89.9232 28.0527 90.5751 28.0527C91.6095 28.0527 92.4456 28.1656 93.0833 28.3913C93.7351 28.617 94.1673 28.7863 94.3799 28.8992L93.6359 30.7402C93.4659 30.6556 93.1824 30.5498 92.7857 30.4228C92.4031 30.2817 91.9496 30.1548 91.4253 30.0419C90.901 29.929 90.3271 29.8726 89.7036 29.8726H89.4698C88.7896 29.8726 88.3432 30.0066 88.1307 30.2747C87.9323 30.5427 87.826 30.9871 87.8118 31.6079V37.7448H85.2186Z" fill="#F0820F"/>
<path d="M107.288 37.8294C106.692 37.8294 106.182 37.7589 105.757 37.6178C105.346 37.4767 104.943 37.3004 104.476 36.8348C104.433 36.7925 104.32 36.6796 104.136 36.4962C103.952 36.3128 103.746 36.1083 103.519 35.8825C103.307 35.6568 103.108 35.4523 102.924 35.2688C102.74 35.0854 102.619 34.9655 102.563 34.9091C102.209 34.5564 101.868 34.2813 101.543 34.0838C101.231 33.8863 100.841 33.7875 100.373 33.7875C100.062 33.7875 99.8775 33.8157 99.8208 33.8722C99.7641 33.9286 99.7358 34.1191 99.7358 34.4435V37.7448H97.1426V24.3494H99.7358V31.9676H100.416C100.671 31.9676 100.898 31.8689 101.096 31.6714C101.224 31.5444 101.465 31.2904 101.819 30.9095C102.173 30.5286 102.57 30.0983 103.009 29.6187C103.463 29.139 103.874 28.6946 104.242 28.2855H107.367L107.027 28.9415C106.701 29.2801 106.346 29.6398 105.964 30.0207C105.581 30.3875 105.206 30.7473 104.837 31.1C104.483 31.4386 104.157 31.7419 103.859 32.0099C103.562 32.2639 103.335 32.4332 103.179 32.5178C103.604 32.7436 103.987 33.0045 104.327 33.3008C104.667 33.583 105.036 33.9074 105.432 34.2743C105.829 34.6269 106.304 35.029 106.856 35.4805C107.352 35.8755 107.813 36.1083 108.238 36.1788C108.663 36.2352 108.918 36.2635 109.003 36.2635L108.584 37.6178C108.442 37.6601 108.251 37.7024 108.01 37.7448C107.769 37.8012 107.528 37.8294 107.288 37.8294Z" fill="#F0820F"/>
<path d="M114.151 37.7448C113.442 37.7448 112.897 37.6531 112.514 37.4697C112.131 37.2863 111.855 37.0535 111.685 36.7713C111.529 36.4892 111.43 36.1929 111.387 35.8825C111.359 35.5722 111.345 35.29 111.345 35.0361V30.973C111.345 30.7614 111.359 30.5075 111.387 30.2112C111.43 29.9008 111.529 29.5975 111.685 29.3012C111.855 29.005 112.131 28.7581 112.514 28.5606C112.911 28.3631 113.456 28.2643 114.151 28.2643H118.721C119.656 28.2643 120.386 28.356 120.91 28.5394C121.448 28.7087 121.824 28.9909 122.037 29.3859C122.263 29.7809 122.377 30.31 122.377 30.973V34.105H118.657C117.382 34.105 116.34 34.0767 115.532 34.0203C114.739 33.9639 114.207 33.9286 113.938 33.9145V35.0784C113.924 35.6427 114.264 35.9249 114.958 35.9249H116.042C116.808 35.9249 117.552 35.9178 118.274 35.9037C119.011 35.8755 119.684 35.8473 120.294 35.8191C120.903 35.7767 121.392 35.7415 121.76 35.7132L122.61 37.0888C122.61 37.5261 121.215 37.7448 118.423 37.7448H114.151ZM113.938 32.285H119.783V30.9307C119.783 30.6485 119.748 30.451 119.677 30.3382C119.62 30.2253 119.436 30.1548 119.124 30.1266C118.813 30.0983 118.281 30.0842 117.53 30.0842H114.958C114.278 30.0842 113.938 30.3664 113.938 30.9307V32.285Z" fill="#F0820F"/>
<path d="M129.712 37.7448C128.635 37.7448 127.898 37.519 127.502 37.0676C127.105 36.6161 126.907 35.939 126.907 35.0361V30.0842H125.164V28.2643H126.056C126.326 28.2643 126.517 28.222 126.63 28.1374C126.758 28.0527 126.85 27.8834 126.907 27.6295L127.332 25.3652H129.5V28.2643H133.921V30.0842H129.5V35.0572C129.5 35.4099 129.585 35.6427 129.755 35.7556C129.925 35.8684 130.18 35.9249 130.52 35.9249H133.517L133.73 37.5332C133.432 37.5755 132.979 37.6249 132.369 37.6813C131.76 37.7236 131.094 37.7448 130.371 37.7448H129.712Z" fill="#F0820F"/>
<path fill-rule="evenodd" clip-rule="evenodd" d="M128.673 14.4047L128.606 14.365C130.139 13.9028 131.253 13.1284 131.949 12.042C132.669 10.9325 133.029 9.68432 133.029 8.29744V7.63867C133.029 6.87589 132.936 6.12466 132.75 5.38499C132.565 4.64532 132.216 3.98655 131.706 3.40868C131.218 2.8077 130.51 2.33385 129.581 1.98713C128.676 1.61729 127.481 1.43237 125.995 1.43237H109.872L110.22 4.24081V21.8542H117.011V15.1625H117.289C117.877 15.1625 118.417 15.1889 118.909 15.2416L118.948 15.2383C121.87 15.7472 123.743 17.0755 125.581 18.3786C127.671 19.8608 129.715 21.3103 133.205 21.4848C134.115 21.5303 135.074 21.5704 136.055 21.6056L137.722 16.7907C133.992 16.4973 130.504 15.8384 128.654 14.4063L128.673 14.4047ZM121.05 10.5511C121.63 10.5511 122.188 10.5396 122.722 10.5165C123.279 10.4933 123.778 10.4587 124.219 10.4124C125.008 10.32 125.542 10.0773 125.821 9.68432C126.122 9.26826 126.273 8.77129 126.273 8.19342V7.81203C126.273 7.30351 126.122 6.91056 125.821 6.63318C125.542 6.3558 125.02 6.21712 124.254 6.21712H117.011V10.4124C117.591 10.4355 118.229 10.4702 118.926 10.5165C119.622 10.5396 120.33 10.5511 121.05 10.5511Z" fill="#1C1C1C"/>
<path fill-rule="evenodd" clip-rule="evenodd" d="M49.0465 4.24081V21.8542H64.8557C67.6879 21.8542 69.8004 21.311 71.1933 20.2246C72.5862 19.1151 73.2826 17.3584 73.2826 14.9545V8.33211C73.2826 5.97441 72.5746 4.24081 71.1585 3.1313C69.7656 2.0218 67.6647 1.46705 64.8557 1.46705H48.6982L49.0465 4.24081ZM63.811 17.0695H55.8368V6.18244H63.811C64.8325 6.18244 65.5405 6.42515 65.9352 6.91056C66.3298 7.37285 66.5271 7.93916 66.5271 8.60949V14.6078C66.5039 16.2489 65.5986 17.0695 63.811 17.0695Z" fill="#1C1C1C"/>
<path fill-rule="evenodd" clip-rule="evenodd" d="M75.9789 21.8542L86.1818 1.46705H95.2355L105.404 21.8542H97.9168L96.2105 18.1443H85.2067L83.2915 21.8542H75.9789ZM87.1219 13.3596H94.2605L90.8827 5.97441H90.5345L87.1219 13.3596Z" fill="#1C1C1C"/>
<path d="M158.01 21.8542H149.676V21.8429C147.769 21.8429 144.148 21.8158 140.31 21.7284L141.95 16.9883C143.994 17.0304 145.951 17.0083 147.59 16.9897C148.365 16.9809 149.068 16.973 149.676 16.973C151.183 16.973 152.42 17.0117 153.417 17.0695H155.155C155.967 17.0695 156.513 16.9539 156.791 16.7227C157.07 16.4916 157.209 16.1564 157.209 15.7173V15.3705C157.209 14.8158 157.07 14.4344 156.791 14.2264C156.513 14.0183 155.967 13.9143 155.155 13.9143H147.18C144.836 13.9143 143.13 13.4867 142.062 12.6314C140.994 11.7531 140.46 10.3315 140.46 8.36678V7.11859C140.46 6.10154 140.646 5.1654 141.017 4.31015C141.412 3.45491 142.073 2.77303 143.002 2.2645C143.93 1.73287 145.207 1.46705 146.832 1.46705H158.393C159.809 1.46705 160.982 1.54795 161.91 1.70975C162.862 1.87155 163.338 2.04491 163.338 2.22983L162.293 6.52916C161.643 6.45982 160.413 6.39048 158.602 6.32113C156.815 6.22867 154.54 6.18244 151.777 6.18244L149.27 6.14777C148.55 6.14777 148.039 6.25179 147.738 6.45982C147.436 6.64474 147.273 7.00302 147.25 7.53466V7.77736C147.25 8.309 147.413 8.67883 147.738 8.88686C148.063 9.0949 148.585 9.19891 149.305 9.19891H156.965C158.451 9.19891 159.716 9.34916 160.761 9.64965C161.806 9.95014 162.607 10.5049 163.164 11.3139C163.721 12.0998 164 13.2671 164 14.8158V16.064C164 17.7976 163.547 19.196 162.641 20.2593C161.759 21.3226 160.216 21.8542 158.01 21.8542Z" fill="#1C1C1C"/>
<path fill-rule="evenodd" clip-rule="evenodd" d="M5.72926 0C5.53585 0 5.34468 0.00958374 5.15619 0.0283022C5.05998 0.0378567 4.96448 0.0497911 4.86973 0.0640457C2.1133 0.478746 0 2.85721 0 5.72926V33.6594C0 33.7203 0.000949262 33.7809 0.00283379 33.8413C0.0332574 34.8166 0.307433 35.7305 0.766473 36.524C1.75709 38.2365 3.60862 39.3886 5.72926 39.3886H16.4716V0H5.72926ZM4.86973 0.426482C4.96441 0.411254 5.05992 0.3985 5.15619 0.38829V9.49615L5.42947 9.54772C6.01239 13.3976 8.59389 14.1047 8.59389 14.1047C8.46065 15.8018 7.87218 17.4308 7.5946 18.0332C7.20599 18.0856 6.12897 18.1904 4.92983 18.1904C3.73068 18.1904 2.7647 18.0856 2.4316 18.0332C1.63217 16.5247 1.43231 14.7857 1.43231 14.1047C3.63075 13.3505 4.45794 10.7525 4.59673 9.54772L4.86973 9.49621V0.426482ZM0.358079 27.8585V26.0681H15.0393C15.0393 26.0681 15.3974 26.2114 15.3974 26.7843C15.3974 27.8585 14.6812 27.8585 14.3231 27.8585H0.358079ZM0.358079 33.6594V28.6463H13.9651V31.5109C13.9651 33.3013 12.1747 35.0917 10.7424 35.8079C10.6415 35.8583 10.5371 35.9052 10.4296 35.9487L10.7098 39.0306H9.46919L8.03717 36.4529C7.20912 36.524 6.39243 36.524 5.72926 36.524H1.18493C0.661187 35.6949 0.358079 34.7126 0.358079 33.6594ZM9.84716 0.358079H10.2052V4.02477C10.4204 4.0449 10.4967 4.10794 10.5294 4.14234L10.2937 6.74475L12.2383 12.5692C11.6098 12.7138 9.62197 12.8666 7.87773 12.5692L9.82232 6.74475L9.58661 4.14234C9.60132 4.11141 9.67332 4.0573 9.84716 4.03208V0.358079ZM10.7424 21.5564V23.49H8.95197V21.6996C8.95197 19.9092 10.3843 19.193 11.4585 19.193C12.5328 19.193 13.9651 19.9092 13.9651 21.6996V23.8481H15.0393V25.2804H12.1747V21.5564C12.1747 20.8402 10.7424 20.8402 10.7424 21.5564Z" fill="#F0820F"/>
<path fill-rule="evenodd" clip-rule="evenodd" d="M20.0524 0V22.2009H36.524V5.72926C36.524 3.91997 35.6853 2.30656 34.3755 1.25659C34.1502 1.07591 33.9108 0.911912 33.6594 0.766473C32.8167 0.278998 31.8383 0 30.7948 0H20.0524ZM33.6594 1.18493C32.8303 0.661187 31.8479 0.358079 30.7948 0.358079H22.917V12.8908L22.9312 13.607C22.917 11.4585 23.814 10.3843 24.7472 10.3843H33.6594V1.18493ZM36.1659 19.3362V15.6438C35.8741 16.3676 35.43 16.8297 34.9326 16.8297H34.3755V19.3362H36.1659ZM36.1659 11.5702V5.72926C36.1659 4.13849 35.4744 2.70925 34.3755 1.72575V10.3843H34.9326C35.43 10.3843 35.8741 10.8464 36.1659 11.5702ZM24.7074 16.1135C25.7817 16.1135 26.4258 14.6194 26.4258 13.607C26.4258 12.5946 26.1397 11.4585 25.0655 11.1004H34.3034C35.0944 11.1004 35.7357 12.2226 35.7357 13.607C35.7357 14.9914 35.0944 16.1135 34.3034 16.1135H24.7074Z" fill="#F0820F"/>
<path fill-rule="evenodd" clip-rule="evenodd" d="M20.0524 39.3886V25.7817H36.524V33.6594C36.524 34.154 36.4614 34.6339 36.3435 35.0917C36.3355 35.1231 36.3271 35.1544 36.3185 35.1856C36.2599 35.3982 36.1894 35.6059 36.1076 35.8079C35.8625 36.4132 35.517 36.9672 35.0917 37.449C34.8731 37.6967 34.6335 37.9253 34.3755 38.132C33.3947 38.9183 32.1497 39.3886 30.7948 39.3886H20.0524ZM30.7948 39.0306C31.2908 39.0306 31.7711 38.9633 32.2271 38.8375V35.8079H30.7948V39.0306ZM32.9432 38.5836C33.4701 38.3534 33.953 38.0411 34.3755 37.6629V35.8079H32.9432V38.5836ZM35.0917 36.8826C35.3402 36.5519 35.5514 36.1916 35.719 35.8079H35.0917V36.8826ZM35.9729 35.0917C36.0987 34.6357 36.1659 34.1554 36.1659 33.6594H30.7948V35.0917H35.9729ZM36.1659 32.9432V31.5109H30.7948V32.9432H36.1659ZM36.1659 30.7948V29.3624H30.7948V30.7948H36.1659ZM24.3493 39.0306V37.9563H30.0786V39.0306H24.3493ZM24.3493 35.0917V29.3624H25.7817V35.0917H24.3493ZM27.9301 29.3624H26.4978V35.0917H27.9301V29.3624ZM30.0786 29.3624H28.6463V35.0917H30.0786V29.3624ZM24.3493 37.2402H30.0786V35.8079H24.3493V37.2402Z" fill="#F0820F"/>
</svg>
