<svg width="16" height="13" viewBox="0 0 16 13" fill="none" xmlns="http://www.w3.org/2000/svg">
<path fill-rule="evenodd" clip-rule="evenodd" d="M1.07812 0.445996L14.8906 0.442871L15.0938 0.520996C15.2063 0.564746 15.3406 0.627246 15.3906 0.661621C15.4406 0.692871 15.55 0.786621 15.6281 0.870996C15.7063 0.952246 15.7969 1.071 15.8281 1.13037C15.8594 1.18975 15.9094 1.31787 15.9438 1.41162C16 1.57725 16 1.78037 16 6.42725C16 10.7991 15.9969 11.2866 15.95 11.4429C15.9219 11.5366 15.8719 11.671 15.8344 11.7397C15.8 11.8085 15.7063 11.9335 15.6281 12.0147C15.55 12.0991 15.4406 12.1929 15.3906 12.2241C15.3406 12.2585 15.2063 12.321 14.8906 12.4429H1.10938L0.90625 12.3647C0.79375 12.321 0.659375 12.2585 0.609375 12.2241C0.559375 12.1929 0.45 12.0991 0.371875 12.0147C0.29375 11.9335 0.203125 11.8147 0.171875 11.7554C0.140625 11.696 0.090625 11.5679 0.05625 11.4741C0 11.3085 0 11.1054 0 6.4585C0 2.08662 0.003125 1.59912 0.05 1.44287C0.078125 1.34912 0.128125 1.21787 0.159375 1.15537C0.190625 1.08975 0.278125 0.970996 0.35 0.892871C0.425 0.811621 0.528125 0.717871 0.578125 0.683496C0.628125 0.645996 0.7625 0.577246 0.875 0.530371L1.07812 0.445996ZM2.64375 2.46162C3.43125 3.1835 4.87187 4.496 5.84375 5.38037C6.90312 6.34287 7.65938 7.0085 7.73438 7.03975C7.80312 7.071 7.92188 7.09912 8 7.09912C8.07812 7.09912 8.19687 7.071 8.26562 7.03975C8.33438 7.0085 8.475 6.9085 8.57812 6.81475C8.68125 6.721 9.31563 6.146 9.98438 5.53662C10.6562 4.92725 12.0094 3.68975 12.9969 2.78662C14.4594 1.44912 14.7812 1.14287 14.7312 1.12412C14.7 1.11162 11.6687 1.10225 8 1.10225C4.33125 1.10225 1.3 1.11162 1.26875 1.12412C1.21875 1.14287 1.475 1.38975 2.64375 2.46162ZM0.65625 6.4585C0.65625 9.021 0.66875 11.146 0.68125 11.1866C0.69375 11.2241 0.7125 11.2522 0.725 11.2491C0.7375 11.2429 1.27813 10.7397 1.92813 10.1272C2.57812 9.51787 3.4625 8.696 3.89062 8.29912C4.32188 7.90537 4.96563 7.32412 5.32188 7.00537C5.68125 6.68662 5.96875 6.41787 5.9625 6.40537C5.95625 6.39287 4.775 5.3085 3.3375 3.99287C1.89688 2.67412 0.7125 1.59912 0.70625 1.59912C0.7 1.59912 0.684375 1.646 0.675 1.70225C0.665625 1.75537 0.65625 3.89912 0.65625 6.4585ZM10.0375 6.40537C10.0312 6.41787 10.3188 6.68662 10.6781 7.00537C11.0344 7.32412 11.6781 7.90537 12.1094 8.29912C12.5375 8.696 13.4219 9.51787 14.0719 10.1272C14.7219 10.7397 15.2625 11.2429 15.275 11.2491C15.2875 11.2522 15.3063 11.2241 15.3188 11.1866C15.3313 11.146 15.3406 9.00537 15.3406 6.42725C15.3375 3.84912 15.3281 1.70537 15.3156 1.66475C15.2969 1.59912 15.0562 1.81162 12.6719 3.98662C11.2281 5.30537 10.0438 6.39287 10.0375 6.40537ZM4.46875 8.67412C4.15 8.96475 3.28125 9.77412 2.5375 10.471C1.35312 11.5835 1.19375 11.7429 1.25625 11.7616C1.29688 11.771 4.33125 11.7804 8 11.7804C11.6687 11.7804 14.7031 11.771 14.7437 11.7616C14.8062 11.7429 14.65 11.5835 13.4625 10.471C12.7188 9.77412 11.85 8.96475 11.5312 8.67412C11.2125 8.3835 10.65 7.87725 10.2812 7.55225C9.9125 7.22412 9.58438 6.93975 9.55313 6.91787C9.5 6.8835 9.45625 6.91475 9.13125 7.2085C8.9 7.41787 8.69687 7.57412 8.57812 7.63037C8.475 7.68037 8.3 7.73662 8.1875 7.75225C8.05625 7.771 7.91875 7.771 7.79688 7.75225C7.69375 7.73662 7.525 7.68037 7.42188 7.63037C7.30625 7.57412 7.09375 7.41475 6.86562 7.21162C6.66563 7.03037 6.49375 6.88037 6.4875 6.88037C6.48125 6.88037 6.15312 7.16475 5.7625 7.51162C5.36875 7.8585 4.7875 8.38037 4.46875 8.67412Z" fill="#F0820F"/>
</svg>
