<svg width="15" height="15" viewBox="0 0 15 15" fill="none" xmlns="http://www.w3.org/2000/svg">
<path d="M1 13.8552V1.94867C1 1.71382 1.19038 1.52344 1.42523 1.52344H13.3318C13.5667 1.52344 13.757 1.71382 13.757 1.94867V13.8552C13.757 14.0901 13.5667 14.2805 13.3318 14.2805H1.42523C1.19038 14.2805 1 14.0901 1 13.8552Z" stroke="black" stroke-width="1.06308"/>
<path d="M9.85906 10.7369C10.0547 10.7369 10.2134 10.5782 10.2134 10.3825C10.2134 10.1868 10.0547 10.0281 9.85906 10.0281C9.66338 10.0281 9.5047 10.1868 9.5047 10.3825C9.5047 10.5782 9.66338 10.7369 9.85906 10.7369Z" fill="white" stroke="black" stroke-width="1.06308" stroke-linecap="round" stroke-linejoin="round"/>
<path d="M4.898 5.77574C5.09371 5.77574 5.25236 5.61709 5.25236 5.42138C5.25236 5.22567 5.09371 5.06702 4.898 5.06702C4.70229 5.06702 4.54364 5.22567 4.54364 5.42138C4.54364 5.61709 4.70229 5.77574 4.898 5.77574Z" fill="white" stroke="black" stroke-width="1.06308" stroke-linecap="round" stroke-linejoin="round"/>
<path d="M10.2134 5.06702L4.54364 10.7368" stroke="black" stroke-width="1.06308" stroke-linecap="round" stroke-linejoin="round"/>
</svg>
