<svg width="17" height="17" viewBox="0 0 17 17" fill="none" xmlns="http://www.w3.org/2000/svg">
<rect width="17" height="17" rx="2.84211" fill="#F0820F"/>
<path d="M12.4223 13.0001C12.7413 13.0001 13 12.7414 13 12.4224C13 12.1034 12.7413 11.8447 12.4223 11.8447C12.1033 11.8447 11.8446 12.1034 11.8446 12.4224C11.8446 12.7414 12.1033 13.0001 12.4223 13.0001Z" fill="white" stroke="white" stroke-width="1.73308" stroke-linecap="round" stroke-linejoin="round"/>
<path d="M4.33461 4.9124C4.65365 4.9124 4.9123 4.65376 4.9123 4.33471C4.9123 4.01566 4.65365 3.75702 4.33461 3.75702C4.01556 3.75702 3.75691 4.01566 3.75691 4.33471C3.75691 4.65376 4.01556 4.9124 4.33461 4.9124Z" fill="white" stroke="white" stroke-width="1.73308" stroke-linecap="round" stroke-linejoin="round"/>
<path d="M13 3.75702L3.75691 13.0001" stroke="white" stroke-width="1.73308" stroke-linecap="round" stroke-linejoin="round"/>
</svg>
