<svg width="31" height="32" viewBox="0 0 31 32" fill="none" xmlns="http://www.w3.org/2000/svg">
<rect y="0.442871" width="30.7692" height="30.7692" rx="15.3846" fill="#55ACE3"/>
<path d="M23.5385 11.9044C23 12.1352 22.3846 12.289 21.7692 12.3659C22.3846 11.9813 22.9231 11.366 23.1538 10.6736C22.5385 11.0583 21.9231 11.289 21.1538 11.4429C20.6154 10.8275 19.7692 10.4429 18.9231 10.4429C17.2308 10.4429 15.8461 11.8275 15.8461 13.5198C15.8461 13.7506 15.8462 13.9813 15.9231 14.2121C13.3846 14.0583 11.0769 12.8275 9.53846 10.9813C9.30769 11.4429 9.15384 11.9813 9.15384 12.5198C9.15384 13.5967 9.69231 14.5198 10.5385 15.0583C10 15.0583 9.53846 14.9044 9.15384 14.6736C9.15384 16.1352 10.2308 17.4429 11.6154 17.6736C11.3846 17.7506 11.0769 17.7506 10.7692 17.7506C10.5385 17.7506 10.3846 17.7506 10.1538 17.6736C10.5385 18.9044 11.6923 19.8275 13.0769 19.8275C12 20.6736 10.6923 21.1352 9.23077 21.1352C9 21.1352 8.76923 21.1352 8.46154 21.0583C9.84615 21.9044 11.4615 22.4429 13.2308 22.4429C18.9231 22.4429 22 17.7506 22 13.6736V13.289C22.6154 13.0583 23.1538 12.5198 23.5385 11.9044Z" fill="white"/>
</svg>
