<svg width="28" height="28" viewBox="0 0 28 28" fill="none" xmlns="http://www.w3.org/2000/svg">
<path d="M15.7039 14.7613L10.7318 20.4437C9.81944 21.4864 8.19737 21.4864 7.28502 20.4437L2.31293 14.7613C1.55747 13.898 1.55747 12.6087 2.31293 11.7454L7.28502 6.06303C8.19737 5.02033 9.81944 5.02033 10.7318 6.06302L15.7039 11.7454C16.4593 12.6087 16.4593 13.898 15.7039 14.7613Z" stroke="black" stroke-width="1.93568" stroke-linecap="round" stroke-linejoin="round"/>
<path d="M14.7333 21.2684L20.3259 14.7438C21.0608 13.8862 21.0608 12.6207 20.3259 11.7631L14.7333 5.23853" stroke="black" stroke-width="1.93568" stroke-linecap="round" stroke-linejoin="round"/>
<path d="M19.3133 21.2684L24.9059 14.7438C25.6409 13.8862 25.6409 12.6207 24.9059 11.7631L19.3133 5.23853" stroke="black" stroke-width="1.93568" stroke-linecap="round" stroke-linejoin="round"/>
</svg>
