<svg width="13" height="17" viewBox="0 0 13 17" fill="none" xmlns="http://www.w3.org/2000/svg">
<g id="&#209;&#129;&#208;&#177;&#208;&#191;">
<path d="M0 4.28785L1.94194 7.75118V9.86371L0.00227175 13.3202L0 4.28785Z" fill="#5B57A2"/>
<path d="M7.45627 6.49091L9.27594 5.37811L13 5.37464L7.45627 8.76318V6.49091Z" fill="#D90751"/>
<path d="M7.44598 4.26744L7.45627 8.85278L5.50979 7.65944V0.805176L7.44598 4.26744Z" fill="#FAB718"/>
<path d="M13 5.37464L9.27594 5.37811L7.44598 4.26744L5.50979 0.805176L13 5.37464Z" fill="#ED6F26"/>
<path d="M7.45627 13.3394V11.1148L5.50979 9.94411L5.51085 16.8052L7.45627 13.3394Z" fill="#63B22F"/>
<path d="M9.2714 12.2368L1.94194 7.75118L0 4.28785L12.9921 12.2322L9.2714 12.2368Z" fill="#1487C9"/>
<path d="M5.51085 16.8052L7.45627 13.3394L9.2714 12.2368L12.9921 12.2322L5.51085 16.8052Z" fill="#017F36"/>
<path d="M0.00227175 13.3202L5.52569 9.94424L3.66874 8.80744L1.94194 9.86371L0.00227175 13.3202Z" fill="#984995"/>
</g>
</svg>
