<svg width="13" height="12" viewBox="0 0 13 12" fill="none" xmlns="http://www.w3.org/2000/svg">
<path d="M4.3517 4.11781C4.51292 4.09504 4.65296 3.9952 4.72704 3.85021L6.41543 0.545656L6.41545 0.545626C6.42392 0.529045 6.43387 0.519904 6.44523 0.513397C6.45848 0.50581 6.47751 0.5 6.5 0.5C6.52249 0.5 6.54152 0.50581 6.55476 0.513397C6.56612 0.519904 6.57608 0.529045 6.58455 0.545625L6.58456 0.545654L8.27293 3.85021C8.34702 3.9952 8.48705 4.09504 8.64827 4.11781L12.4241 4.65099L12.494 4.1559L12.4241 4.65099C12.4513 4.65484 12.4661 4.66396 12.4747 4.67128C12.4847 4.67977 12.4923 4.69112 12.4965 4.70375C12.5008 4.71635 12.5006 4.72698 12.4989 4.73434C12.4976 4.73966 12.4942 4.75036 12.4781 4.76549C12.4781 4.76549 12.4781 4.7655 12.4781 4.7655L9.74646 7.33595C9.62358 7.45158 9.56731 7.62137 9.5968 7.78749L10.2415 11.4188L10.2415 11.4188C10.2443 11.435 10.2418 11.4433 10.2391 11.4493C10.2355 11.4575 10.2271 11.4695 10.2115 11.4805C10.1801 11.5025 10.1419 11.5072 10.1029 11.4874L6.72648 9.77193C6.58415 9.69961 6.41585 9.69961 6.27352 9.77192L2.89708 11.4874L3.12356 11.9331L2.89707 11.4874C2.85806 11.5072 2.81991 11.5025 2.78851 11.4805C2.77286 11.4695 2.7645 11.4575 2.76083 11.4493C2.75814 11.4433 2.75563 11.4349 2.7585 11.4188L3.40316 7.78749C3.43266 7.62137 3.37638 7.45158 3.25351 7.33596L0.521887 4.76549L0.521868 4.76548C0.505781 4.75034 0.502384 4.73963 0.501147 4.73432C0.499432 4.72697 0.499236 4.71635 0.503465 4.70375C0.507701 4.69113 0.515343 4.67977 0.525317 4.67129C0.533925 4.66396 0.548703 4.65484 0.575949 4.65099L0.506822 4.16145L0.575951 4.65099L4.3517 4.11781Z" fill="#F0820F" stroke="#F0820F" stroke-linecap="round" stroke-linejoin="round"/>
</svg>
